<?xml version="1.0" encoding="utf-8"?>
<!-- Generator: Adobe Illustrator 24.2.0, SVG Export Plug-In . SVG Version: 6.00 Build 0)  -->
<svg version="1.1" id="Layer_1" xmlns="http://www.w3.org/2000/svg" xmlns:xlink="http://www.w3.org/1999/xlink" x="0px" y="0px"
	 viewBox="0 0 195 59" style="enable-background:new 0 0 195 59;" xml:space="preserve">
<style type="text/css">
	.st0{fill:#009DDA;}
	.st1{fill-rule:evenodd;clip-rule:evenodd;fill:#005AA9;}
	.st2{fill-rule:evenodd;clip-rule:evenodd;fill:#EC1C24;}
	.st3{fill:#EC1C24;}
	.st4{fill:#005AA9;}
	.st5{fill:none;stroke:#057EAE;stroke-miterlimit:10;}
</style>
<g>
	<g>
		<g>
			<path class="st0" d="M96.68,49.19c-0.2,0.75-0.41,1.26-0.66,1.54c-0.25,0.26-0.65,0.4-1.22,0.4c-0.57,0-0.98-0.13-1.23-0.4
				c-0.25-0.28-0.46-0.79-0.66-1.54l-1.62-6.3c-0.09-0.36-0.03-0.45,0.35-0.45h0.15c0.37,0,0.49,0.09,0.58,0.45l1.62,6.42
				c0.17,0.73,0.36,0.9,0.82,0.9c0.44,0,0.64-0.17,0.81-0.9l1.62-6.42c0.09-0.36,0.21-0.45,0.58-0.45h0.15
				c0.37,0,0.44,0.09,0.35,0.45L96.68,49.19z"/>
			<path class="st0" d="M99.42,44.93c0-0.33,0.09-0.42,0.42-0.42h0.15c0.36,0,0.42,0.09,0.42,0.42v5.65c0,0.36-0.07,0.42-0.42,0.42
				h-0.15c-0.33,0-0.42-0.07-0.42-0.42V44.93z M100.47,43.45c-0.13,0.21-0.32,0.32-0.57,0.32h-0.13c-0.28,0-0.35-0.07-0.2-0.33
				l0.56-1.07c0.17-0.32,0.31-0.4,0.66-0.4h0.13c0.36,0,0.41,0.08,0.21,0.38L100.47,43.45z"/>
			<path class="st0" d="M105.21,47.1c0-1.73,0.94-2.73,2.96-2.73c0.44,0,0.82,0.05,1.17,0.17c0.32,0.11,0.4,0.2,0.4,0.5v0.13
				c0,0.33-0.08,0.42-0.4,0.32c-0.33-0.12-0.72-0.18-1.14-0.18c-1.49,0-1.99,0.58-1.99,1.81v1.28c0,1.33,0.6,1.81,2.07,1.81
				c0.45,0,0.85-0.05,1.19-0.17c0.31-0.11,0.4,0,0.4,0.33v0.13c0,0.28-0.09,0.38-0.42,0.47c-0.37,0.12-0.78,0.17-1.23,0.17
				c-2.03,0-3-0.87-3-2.73V47.1z"/>
			<path class="st0" d="M111.81,48.67c0,1.04,0.44,1.53,1.78,1.53c1.34,0,1.77-0.47,1.77-1.53v-3.74c0-0.33,0.09-0.42,0.42-0.42
				h0.15c0.36,0,0.42,0.09,0.42,0.42v3.74c0,1.59-0.81,2.46-2.76,2.46c-1.85,0-2.77-0.82-2.77-2.46v-3.74
				c0-0.33,0.09-0.42,0.42-0.42h0.15c0.36,0,0.42,0.09,0.42,0.42V48.67z M113.62,43.77c-0.25,0-0.28-0.09-0.32-0.25
				c-0.04-0.37,0.2-0.53,0.6-0.95c0.11-0.11,0.17-0.2,0.17-0.3c0-0.22-0.11-0.33-0.24-0.34c-0.13-0.01-0.4,0.03-0.58,0.12
				c-0.15,0.05-0.27,0.05-0.36-0.14l-0.05-0.11c-0.08-0.2,0.05-0.26,0.19-0.33c0.32-0.13,0.53-0.16,0.78-0.16
				c0.52,0,0.94,0.29,0.93,0.96c0,0.58-0.77,0.82-0.81,1.25c0,0.11-0.11,0.22-0.24,0.25H113.62z"/>
			<path class="st0" d="M122.81,49.05c0,1.46-0.86,2.08-2.77,2.08c-1.53,0-2.5-0.61-2.5-1.98c0-1.37,0.9-1.92,2.71-1.92h1.57v-0.79
				c0-0.9-0.61-1.2-1.74-1.2c-0.58,0-1.08,0.05-1.46,0.14c-0.32,0.07-0.42-0.01-0.42-0.33v-0.11c0-0.3,0.08-0.38,0.4-0.45
				c0.44-0.09,0.92-0.13,1.43-0.13c1.86,0,2.79,0.68,2.79,2.07V49.05z M121.82,48.01h-1.55c-1.18,0-1.73,0.32-1.73,1.15
				c0,0.75,0.49,1.12,1.49,1.12c1.22,0,1.79-0.28,1.79-1.27V48.01z"/>
			<path class="st0" d="M133.37,46.81c0,1.53-0.92,2.29-2.75,2.29c-0.72,0-1.18,0.04-1.41,0.11c-0.21,0.07-0.32,0.2-0.32,0.4
				c0,0.18,0.11,0.3,0.33,0.37c0.23,0.05,0.69,0.08,1.39,0.08c1.1,0,1.86,0.13,2.27,0.41c0.42,0.26,0.64,0.72,0.64,1.4
				c0,0.75-0.21,1.26-0.65,1.57c-0.42,0.3-1.18,0.45-2.26,0.45c-1.1,0-1.87-0.14-2.3-0.45c-0.41-0.29-0.62-0.75-0.62-1.38
				c0-0.63,0.25-1.11,0.74-1.41c-0.36-0.17-0.54-0.46-0.54-0.87c0-0.58,0.36-0.92,1.08-1.03c-0.74-0.3-1.12-0.95-1.12-1.92v-0.16
				c0-1.44,1.02-2.28,2.76-2.28c0.52,0,0.97,0.09,1.37,0.26l0.76-0.67c0.23-0.2,0.33-0.2,0.54,0l0.09,0.09c0.21,0.2,0.21,0.3,0,0.51
				l-0.6,0.61c0.39,0.36,0.58,0.84,0.58,1.48V46.81z M129.32,50.86c-0.41,0.2-0.62,0.57-0.62,1.08c0,0.86,0.49,1.08,1.93,1.08
				c1.38,0,1.91-0.22,1.91-1.12c0-0.83-0.49-0.98-1.91-0.98C130.05,50.92,129.61,50.9,129.32,50.86z M132.36,46.66
				c0-0.94-0.58-1.4-1.74-1.4c-1.18,0-1.77,0.46-1.77,1.4v0.16c0,0.95,0.42,1.42,1.77,1.42c1.34,0,1.74-0.47,1.74-1.42V46.66z"/>
			<path class="st0" d="M136.04,42.48c0,0.36-0.28,0.63-0.64,0.63c-0.37,0-0.66-0.28-0.66-0.63c0-0.36,0.29-0.65,0.66-0.65
				C135.76,41.83,136.04,42.12,136.04,42.48z M134.9,44.93c0-0.33,0.07-0.42,0.42-0.42h0.15c0.33,0,0.42,0.09,0.42,0.42v5.65
				c0,0.36-0.09,0.42-0.42,0.42h-0.15c-0.36,0-0.42-0.07-0.42-0.42V44.93z"/>
			<path class="st0" d="M142.6,49.05c0,1.46-0.86,2.08-2.77,2.08c-1.53,0-2.5-0.61-2.5-1.98c0-1.37,0.9-1.92,2.71-1.92h1.57v-0.79
				c0-0.9-0.61-1.2-1.74-1.2c-0.58,0-1.08,0.05-1.46,0.14c-0.32,0.07-0.42-0.01-0.42-0.33v-0.11c0-0.3,0.08-0.38,0.4-0.45
				c0.44-0.09,0.92-0.13,1.43-0.13c1.86,0,2.79,0.68,2.79,2.07V49.05z M141.6,48.01h-1.55c-1.18,0-1.73,0.32-1.73,1.15
				c0,0.75,0.49,1.12,1.49,1.12c1.22,0,1.79-0.28,1.79-1.27V48.01z"/>
			<path class="st0" d="M154.64,43.4c0,0.28-0.09,0.37-0.37,0.37h-0.8v4.61c0,1.83-0.97,2.75-2.91,2.75c-2,0-2.91-0.92-2.91-2.75
				v-1.23c0-1.86,0.92-2.78,2.75-2.78c1.02,0,1.71,0.32,2.07,0.96v-1.57h-1.81c-0.31,0-0.37-0.09-0.37-0.37V43.3
				c0-0.28,0.07-0.37,0.37-0.37h1.81V42.2c0-0.36,0.07-0.42,0.42-0.42h0.15c0.33,0,0.42,0.07,0.42,0.42v0.72h0.8
				c0.28,0,0.37,0.09,0.37,0.37V43.4z M148.65,48.37c0,1.26,0.44,1.83,1.91,1.83c1.45,0,1.91-0.57,1.91-1.83v-1.23
				c0-1.26-0.46-1.83-1.91-1.83c-1.45,0-1.91,0.57-1.91,1.83V48.37z"/>
			<path class="st0" d="M154.39,42.36c-0.2-0.3-0.15-0.38,0.21-0.38h0.13c0.36,0,0.49,0.08,0.66,0.4l0.56,1.07
				c0.13,0.26,0.09,0.33-0.2,0.33h-0.13c-0.25,0-0.44-0.11-0.57-0.32L154.39,42.36z M155.16,44.93c0-0.33,0.09-0.42,0.42-0.42h0.15
				c0.36,0,0.42,0.09,0.42,0.42v5.65c0,0.36-0.07,0.42-0.42,0.42h-0.15c-0.33,0-0.42-0.07-0.42-0.42V44.93z"/>
			<path class="st0" d="M158.83,50.58c0,0.36-0.07,0.42-0.42,0.42h-0.15c-0.33,0-0.42-0.07-0.42-0.42v-3.74
				c0-1.65,0.93-2.46,2.77-2.46c1.95,0,2.76,0.87,2.76,2.46v3.74c0,0.36-0.07,0.42-0.43,0.42h-0.16c-0.36,0-0.42-0.07-0.42-0.42
				v-3.74c0-1.05-0.41-1.53-1.75-1.53c-1.34,0-1.78,0.49-1.78,1.53V50.58z"/>
			<path class="st0" d="M165.07,42.2c0-0.36,0.09-0.42,0.43-0.42h0.15c0.36,0,0.43,0.07,0.43,0.42v3.07c0.4-0.59,1.09-0.9,2.08-0.9
				c1.63,0,2.46,0.76,2.46,2.31v3.9c0,0.36-0.07,0.42-0.43,0.42h-0.16c-0.36,0-0.43-0.07-0.43-0.42V46.8c0-1.04-0.46-1.49-1.7-1.49
				c-1.27,0-1.83,0.5-1.83,1.71v3.56c0,0.36-0.07,0.42-0.43,0.42h-0.15c-0.33,0-0.43-0.07-0.43-0.42V42.2z"/>
		</g>
		<path class="st1" d="M178.67,27.53l-6.8-9.75l-0.69-0.64h6.71l4.54,7.37l0.37-0.3l2.75-4.08c0.67-1,0.58-2.17-0.38-2.99h6.34
			l-7.32,10.39l0,7.54l1.29,1.53h-7.87l1.11-1.51C178.7,32.58,178.61,30.04,178.67,27.53L178.67,27.53z M160.2,17.14
			c0.54,0.75,0.7,1.01,0.77,1.67c0.04,0.46,0.01,0.73-0.14,1.16l-5.06,14.67c-0.24,0.6-0.73,1.27-1.44,1.92h5.52
			c-0.41-0.36-0.67-0.8-0.77-1.31c-0.09-0.47-0.08-0.65,0.02-1.1l1.12-3.48h6.43l1,2.69c0.1,0.28,0.16,0.54,0.19,0.84
			c0.09,1-0.23,1.83-1.03,2.41h8.66c-0.85-0.76-1.63-1.55-2.07-2.51l-6.32-16.95C165.26,17.14,162.03,17.14,160.2,17.14L160.2,17.14
			z M165.71,28.14h-4.6l2.23-6.35L165.71,28.14L165.71,28.14z M142.7,17.16l4.35-0.02h2.07h3.21c2.91,0,5.28,2.38,5.28,5.28v0.65
			c0,2.91-2.38,5.12-5.28,5.21l-2.41,0.07c1.94-0.89,2.75-3.14,2.51-5.17c-0.19-1.63-1.03-3.19-2.43-3.22l-0.88-0.02v14.48
			c0,0.28,0.05,0.4,0.2,0.65c0.24,0.39,0.55,0.79,0.88,1.18c0.08,0.1,0.17,0.2,0.25,0.31h-7.49c0.11-0.14,0.22-0.28,0.33-0.42
			c0.23-0.31,0.43-0.64,0.58-1c0.1-0.24,0.15-0.41,0.15-0.66V18.93C143.98,18.12,143.17,17.66,142.7,17.16z"/>
		<path class="st2" d="M102.08,17.06h6.05l5.08,14.56l4.31-12.06c0.08-0.47,0.01-0.62-0.17-1.02c-0.24-0.49-0.49-0.96-0.73-1.45
			h4.52c-0.27,0.98-0.66,2.06-1,3.06l-5.83,16.95c-1.59-0.32-3.37-0.95-4.74-2.25c-1.03-0.98-1.4-2.09-1.91-3.42l-4.88-12.92
			C102.57,17.99,102.33,17.53,102.08,17.06L102.08,17.06z M126.22,23.88v10.4c0,0.42,0.1,0.5,0.36,0.84l1.19,1.55h-5.69
			c0.32-0.49,0.64-0.98,0.96-1.47c0.25-0.4,0.35-0.54,0.35-1.01V19.66l-1.6-2.6h5.9l9.55,12.3v-9.8c0-0.47-0.09-0.62-0.34-1.02
			c-0.32-0.49-0.65-0.96-0.98-1.45h5.69l-1.19,1.55c-0.26,0.34-0.36,0.41-0.36,0.84v17.7c-2.15-0.28-4.16-0.81-5.94-3.09
			L126.22,23.88z"/>
		<g>
			<path class="st3" d="M76.18,31.96l-4.27-11.8c-0.1-0.28-0.21-0.55-0.31-0.83c-0.16-0.4-0.3-0.71-0.41-0.94
				c-0.17-0.34-0.45-0.72-0.83-1.13v-0.06H77v0.11l-0.06,0.19c0.08,0.53,0.22,1.17,0.44,1.93l4.18,12.14l3.48-10.64l0.17-0.51
				l0.18-0.62c0.03-0.12,0.05-0.22,0.05-0.27c0.01-0.06,0.01-0.14,0.01-0.26c0-0.82-0.44-1.49-1.31-2.01v-0.06h5.23v0.07
				l-6.73,19.82l-2.27-0.79c-0.39-0.14-0.74-0.29-1.06-0.43c-0.31-0.14-0.6-0.3-0.84-0.46c-0.45-0.3-0.86-0.71-1.22-1.24
				C76.88,33.66,76.53,32.91,76.18,31.96z"/>
			<path class="st3" d="M88.97,20.35l7.1-4.07l1.4,2.57l-6.85,2.52L88.97,20.35z M90.79,33.72v-8.22c0-0.63-0.08-1.11-0.23-1.43
				c-0.14-0.31-0.39-0.64-0.74-0.97v-0.11h3.54c0.55,0,1.02-0.02,1.4-0.07c0.35-0.04,0.69-0.15,1-0.34h0.11v11.26
				c0,0.65,0.07,1.14,0.2,1.49c0.13,0.39,0.41,0.74,0.83,1.04v0.11h-7.15v-0.11c0.45-0.38,0.73-0.76,0.86-1.14
				C90.73,34.85,90.79,34.35,90.79,33.72z"/>
		</g>
	</g>
	<g>
		<path class="st4" d="M38.63,20.98l-4.65,4.65l-0.23,0.23l-1.48,1.48l-1.1,1.1l-1.48,1.48l-0.23,0.23l-0.64,0.64l-0.23,0.23h0
			l-2.18,2.17v0l-0.23,0.23c-0.65,0.65-1.37,1.19-2.14,1.61c-0.39,0.21-0.78,0.4-1.19,0.55c-0.91,0.35-1.86,0.55-2.81,0.61
			c-0.59,0.04-1.18,0.02-1.77-0.05c-1.26-0.15-2.5-0.55-3.63-1.21c-0.48-0.28-0.98-0.57-1.39-0.98c0,0,0,0-0.01,0
			c-0.09-0.09-0.18-0.18-0.27-0.27l-8.46-8.46l-0.18-0.18c-0.15-0.16-0.28-0.34-0.39-0.53C3.66,24.04,3.5,23.49,3.5,22.9
			c0-0.09,0-0.19,0.01-0.28c0.01-0.14,0.03-0.27,0.06-0.4c0.01-0.05,0.02-0.1,0.04-0.15c0.01-0.02,0.01-0.04,0.02-0.06
			c0.12-0.4,0.32-0.77,0.59-1.11c0.07-0.09,0.15-0.17,0.23-0.26l0.15-0.15l9.01-9.02c0,0,0,0,0,0l5.46-5.46
			c1.22-1.22,3.16-1.27,4.44-0.16L38.63,20.98z"/>
		<path class="st5" d="M19.57,28.82"/>
		<path class="st5" d="M30.63,40.02"/>
		<path class="st3" d="M22.17,41.28c-0.73,0-1.44-0.16-2.13-0.48l-1.73-1.73l-0.42-0.42l-0.07-0.08l-0.81-0.81l-4.04-4.08
			c0.09,0.09,0.18,0.18,0.27,0.27c0.41,0.41,0.91,0.7,1.4,0.98c1.13,0.66,2.37,1.06,3.63,1.21c0.58,0.07,1.18,0.09,1.77,0.05
			c0.96-0.06,1.91-0.26,2.81-0.61c0.41-0.16,0.8-0.34,1.19-0.55c0.77-0.42,1.49-0.96,2.14-1.61l0.23-0.23v0l2.18-2.17h0l0.23-0.23
			l0.64-0.64l0.23-0.23l1.48-1.48l1.1-1.1l1.48-1.48l0.23-0.23l9.36-9.36l3.86-4.18c0.01-0.01,0.02-0.02,0.02-0.02l0.21-0.2
			c1.18-1.18,3.09-1.18,4.27,0l2.11,2.11h0l0.07,0.07c-0.94-0.05-1.88,0.29-2.59,0.98l-7.15,7.04l-0.07,0.09L31.63,34.4l-0.02-0.02
			l-4.59,4.5L27,38.92c-0.01,0.02-0.11,0.13-0.28,0.29c-0.36,0.35-1.12,1.02-2.13,1.49c-0.46,0.22-0.92,0.37-1.38,0.47
			c-0.27,0.05-0.55,0.09-0.83,0.1H22.17z"/>
		<path class="st3" d="M65.27,29.69l-0.23,0.23L54.9,40.22L44.25,51.03c-0.34,0.34-0.69,0.65-1.07,0.92
			c-0.01,0.01-0.03,0.02-0.04,0.04c-0.05,0.04-0.1,0.08-0.16,0.11c-0.01,0.01-0.01,0.01-0.02,0.02c-1.61,1.15-3.58,1.82-5.7,1.82
			c-2.62,0-5-1.03-6.77-2.7c0,0,0,0-0.01-0.01c-0.08-0.07-0.16-0.14-0.24-0.21l-1.83-1.83l-5.15-5.15l-1.72-1.72l-0.24-0.24
			c0.28,0.05,0.56,0.07,0.85,0.07h0.01l0.23,0c0.33-0.01,0.66-0.05,0.98-0.12c0.53-0.11,1.06-0.29,1.58-0.54
			c1.12-0.53,1.96-1.27,2.36-1.66c0.16-0.15,0.27-0.28,0.32-0.34l3.96-3.89l0.02,0.02l13.61-13.39l0.07-0.09l6.61-6.5
			c0.89-0.87,2.28-0.98,3.29-0.29l1.57,1.57c0,0,0,0,0,0l8.5,8.5c0.08,0.08,0.15,0.15,0.21,0.23
			C66.45,26.84,66.38,28.59,65.27,29.69z"/>
		<g>
			<path class="st0" d="M32.43,18.43c-0.24,0.24-0.63,0.23-0.88-0.01c-4.01-4.04-10.56-4.07-14.6-0.06
				c-4.04,4.01-4.07,10.56-0.05,14.6l3.14,3.17c0.02,0.02,0.04,0.05,0.05,0.07c-0.02,0-0.03,0-0.05,0
				c-0.57,0.04-1.15,0.02-1.72-0.04l-2.31-2.33c-4.49-4.52-4.46-11.86,0.06-16.35c4.53-4.49,11.86-4.46,16.35,0.06l0.01,0.01
				C32.68,17.8,32.67,18.19,32.43,18.43z"/>
			<path class="st0" d="M37.23,22.38l-0.87,0.87l-1.53-1.54c-0.24-0.24-0.24-0.63,0-0.87c0.24-0.24,0.63-0.24,0.87,0L37.23,22.38z"
				/>
			<path class="st0" d="M24.07,35.02c-0.01,0.01-0.02,0.01-0.03,0.02c-0.38,0.21-0.76,0.39-1.16,0.54l-4.28-4.31
				c-2.68-2.7-3.06-6.92-0.91-10.05c0.19-0.28,0.58-0.35,0.86-0.16c0.28,0.19,0.35,0.58,0.16,0.86c-1.81,2.64-1.49,6.2,0.77,8.48
				L24.07,35.02z"/>
			<path class="st0" d="M34.65,24.96l-0.02,0.02l-0.64,0.64l-0.21,0.2l-4.81-4.85c-1.79-1.8-4.39-2.43-6.81-1.65
				c-0.32,0.11-0.67-0.07-0.78-0.39c-0.11-0.32,0.07-0.67,0.4-0.78c2.86-0.93,5.95-0.18,8.06,1.95L34.65,24.96z"/>
			<path class="st0" d="M32.07,27.54l-0.87,0.87l-4.82-4.86c-1.18-1.19-3.1-1.19-4.29-0.02c-1.18,1.18-1.19,3.1-0.02,4.29l3.11,3.13
				c0.24,0.24,0.24,0.63,0,0.87c-0.24,0.24-0.63,0.24-0.87,0l-3.11-3.13c-1.65-1.67-1.64-4.37,0.02-6.03
				c1.67-1.66,4.38-1.64,6.03,0.02L32.07,27.54z"/>
			<path class="st0" d="M29.49,30.12l-0.02,0.02l-0.64,0.64l-0.21,0.21l-4.83-4.87c-0.24-0.24-0.24-0.63,0-0.87
				c0.24-0.24,0.63-0.24,0.87,0L29.49,30.12z"/>
		</g>
	</g>
</g>
</svg>
